<?xml version="1.0" encoding="iso-8859-1"?>
<!-- Generator: Adobe Illustrator 18.0.0, SVG Export Plug-In . SVG Version: 6.00 Build 0)  -->
<!DOCTYPE svg PUBLIC "-//W3C//DTD SVG 1.1//EN" "http://www.w3.org/Graphics/SVG/1.1/DTD/svg11.dtd">
<svg version="1.1" id="Capa_1" xmlns="http://www.w3.org/2000/svg" xmlns:xlink="http://www.w3.org/1999/xlink" x="0px" y="0px"
	 viewBox="0 0 56.834 56.834" style="enable-background:new 0 0 56.834 56.834;" xml:space="preserve">
<g>
	<path d="M55.87,41.934c-0.116-0.367-0.434-0.634-0.814-0.688l-7.777-1.089l-3.472-6.78c-0.342-0.668-1.438-0.668-1.779,0
		l-3.472,6.78l-7.777,1.089c-0.381,0.054-0.698,0.32-0.814,0.688s-0.012,0.768,0.269,1.031l5.605,5.268l-1.321,7.426
		c-0.066,0.373,0.084,0.752,0.388,0.978c0.305,0.227,0.711,0.262,1.049,0.089l6.964-3.528l6.964,3.528
		c0.143,0.073,0.298,0.108,0.452,0.108c0.211,0,0.421-0.066,0.597-0.197c0.304-0.226,0.454-0.604,0.388-0.978l-1.321-7.426
		l5.605-5.268C55.882,42.701,55.986,42.301,55.87,41.934z M48.232,47.146c-0.246,0.231-0.359,0.571-0.3,0.903l1.064,5.986
		l-5.628-2.852c-0.143-0.072-0.297-0.108-0.452-0.108s-0.31,0.036-0.452,0.108l-5.628,2.852l1.064-5.986
		c0.06-0.332-0.054-0.672-0.3-0.903l-4.479-4.208l6.225-0.872c0.322-0.045,0.603-0.244,0.751-0.534l2.818-5.504l2.818,5.504
		c0.148,0.29,0.429,0.489,0.751,0.534l6.225,0.872L48.232,47.146z"/>
	<path d="M23.345,39.831c0.116-0.367,0.434-0.634,0.814-0.688l12.437-1.741L41.41,28H27.917c-0.552,0-1-0.447-1-1s0.448-1,1-1h18
		c0.552,0,1,0.447,1,1s-0.448,1-1,1h-1.493l4.814,9.402l5.679,0.795V12.176C54.917,5.462,49.455,0,42.741,0H13.093
		C6.379,0,0.917,5.462,0.917,12.176v29.648C0.917,48.538,6.379,54,13.093,54h18.672l0.835-4.693l-8.986-8.444
		C23.333,40.599,23.228,40.198,23.345,39.831z M27.917,12h18c0.552,0,1,0.447,1,1s-0.448,1-1,1h-18c-0.552,0-1-0.447-1-1
		S27.365,12,27.917,12z M21.605,37.65l-6.857,7.999c-0.197,0.23-0.477,0.35-0.76,0.35c-0.209,0-0.42-0.065-0.6-0.2L8.817,42.37
		c-0.442-0.331-0.531-0.958-0.2-1.399c0.332-0.442,0.958-0.53,1.4-0.2l3.822,2.866l6.248-7.287c0.359-0.42,0.992-0.468,1.41-0.108
		C21.916,36.601,21.964,37.231,21.605,37.65z M21.605,22.65l-6.857,8C14.55,30.881,14.27,31,13.988,31c-0.209,0-0.42-0.065-0.6-0.2
		l-4.571-3.429c-0.442-0.331-0.531-0.958-0.2-1.399c0.332-0.442,0.958-0.531,1.4-0.2l3.822,2.866l6.248-7.288
		c0.359-0.42,0.992-0.468,1.41-0.108C21.916,21.601,21.964,22.231,21.605,22.65z M21.605,8.65l-6.857,8
		C14.55,16.881,14.27,17,13.988,17c-0.209,0-0.42-0.065-0.6-0.2l-4.571-3.429c-0.442-0.331-0.531-0.958-0.2-1.399
		c0.332-0.442,0.958-0.531,1.4-0.2l3.822,2.866l6.248-7.288c0.359-0.42,0.992-0.468,1.41-0.108
		C21.916,7.601,21.964,8.231,21.605,8.65z"/>
</g>
<g>
</g>
<g>
</g>
<g>
</g>
<g>
</g>
<g>
</g>
<g>
</g>
<g>
</g>
<g>
</g>
<g>
</g>
<g>
</g>
<g>
</g>
<g>
</g>
<g>
</g>
<g>
</g>
<g>
</g>
</svg>
