<?xml version="1.0" encoding="iso-8859-1"?>
<!-- Generator: Adobe Illustrator 18.0.0, SVG Export Plug-In . SVG Version: 6.00 Build 0)  -->
<!DOCTYPE svg PUBLIC "-//W3C//DTD SVG 1.1//EN" "http://www.w3.org/Graphics/SVG/1.1/DTD/svg11.dtd">
<svg version="1.1" id="Capa_1" xmlns="http://www.w3.org/2000/svg" xmlns:xlink="http://www.w3.org/1999/xlink" x="0px" y="0px"
	 viewBox="0 0 56.834 56.834" style="enable-background:new 0 0 56.834 56.834;" xml:space="preserve">
<g>
	<path d="M55.87,41.934c-0.116-0.367-0.434-0.634-0.814-0.688l-7.777-1.089l-3.472-6.78c-0.342-0.668-1.438-0.668-1.779,0
		l-3.472,6.78l-7.777,1.089c-0.381,0.054-0.698,0.32-0.814,0.688s-0.012,0.768,0.269,1.031l5.605,5.268l-1.321,7.426
		c-0.066,0.373,0.084,0.752,0.388,0.978c0.305,0.227,0.711,0.262,1.049,0.089l6.964-3.528l6.964,3.528
		c0.143,0.073,0.298,0.108,0.452,0.108c0.211,0,0.421-0.066,0.597-0.197c0.304-0.226,0.454-0.604,0.388-0.978l-1.321-7.426
		l5.605-5.268C55.882,42.701,55.986,42.301,55.87,41.934z M48.232,47.146c-0.246,0.231-0.359,0.571-0.3,0.903l1.064,5.986
		l-5.628-2.852c-0.143-0.072-0.297-0.108-0.452-0.108s-0.31,0.036-0.452,0.108l-5.628,2.852l1.064-5.986
		c0.06-0.332-0.054-0.672-0.3-0.903l-4.479-4.208l6.225-0.872c0.322-0.045,0.603-0.244,0.751-0.534l2.818-5.504l2.818,5.504
		c0.148,0.29,0.429,0.489,0.751,0.534l6.225,0.872L48.232,47.146z"/>
	<path d="M45.917,12h-18c-0.553,0-1,0.447-1,1s0.447,1,1,1h18c0.553,0,1-0.447,1-1S46.47,12,45.917,12z"/>
	<path d="M45.917,26h-18c-0.553,0-1,0.447-1,1s0.447,1,1,1h18c0.553,0,1-0.447,1-1S46.47,26,45.917,26z"/>
	<path d="M21.496,7.241c-0.418-0.359-1.05-0.312-1.409,0.108l-6.248,7.288l-3.822-2.866c-0.441-0.33-1.068-0.243-1.399,0.2
		c-0.332,0.441-0.242,1.068,0.2,1.399l4.571,3.429c0.179,0.135,0.39,0.2,0.599,0.2c0.283,0,0.563-0.119,0.76-0.35l6.857-8
		C21.965,8.231,21.916,7.601,21.496,7.241z"/>
	<path d="M21.496,21.241c-0.418-0.359-1.05-0.312-1.409,0.108l-6.248,7.288l-3.822-2.866c-0.441-0.33-1.068-0.243-1.399,0.2
		c-0.332,0.441-0.242,1.068,0.2,1.399l4.571,3.429c0.179,0.135,0.39,0.2,0.599,0.2c0.283,0,0.563-0.119,0.76-0.35l6.857-8
		C21.965,22.231,21.916,21.601,21.496,21.241z"/>
	<path d="M20.087,36.35l-6.248,7.287l-3.822-2.866c-0.441-0.331-1.068-0.243-1.399,0.2c-0.332,0.441-0.242,1.068,0.2,1.399
		l4.571,3.429c0.179,0.135,0.39,0.2,0.599,0.2c0.283,0,0.563-0.119,0.76-0.35l6.857-7.999c0.36-0.419,0.312-1.05-0.108-1.409
		C21.078,35.882,20.446,35.93,20.087,36.35z"/>
	<path d="M27.917,52H13.093C7.481,52,2.917,47.436,2.917,41.824V12.176C2.917,6.564,7.481,2,13.093,2h29.648
		c5.611,0,10.176,4.564,10.176,10.176v23.905c0,0.553,0.447,1,1,1s1-0.447,1-1V12.176C54.917,5.462,49.455,0,42.741,0H13.093
		C6.379,0,0.917,5.462,0.917,12.176v29.648C0.917,48.538,6.379,54,13.093,54h14.824c0.553,0,1-0.447,1-1S28.47,52,27.917,52z"/>
</g>
<g>
</g>
<g>
</g>
<g>
</g>
<g>
</g>
<g>
</g>
<g>
</g>
<g>
</g>
<g>
</g>
<g>
</g>
<g>
</g>
<g>
</g>
<g>
</g>
<g>
</g>
<g>
</g>
<g>
</g>
</svg>
